<mxfile host="drawio-plugin" modified="2022-09-21T03:24:31.357Z" agent="5.0 (Macintosh; Intel Mac OS X 10_15_7) AppleWebKit/537.36 (KHTML, like Gecko) Chrome/89.0.4389.114 Safari/537.36" etag="8xmDJ64fiAli27a0tX8r" version="15.5.4" type="embed"><diagram id="mUW30KWwwIb5eTgY0lhn" name="第 1 页"><mxGraphModel dx="1006" dy="766" grid="1" gridSize="10" guides="1" tooltips="1" connect="1" arrows="1" fold="1" page="1" pageScale="1" pageWidth="827" pageHeight="1169" math="0" shadow="0"><root><mxCell id="0"/><mxCell id="1" parent="0"/><mxCell id="5FsGlYniqCGd8QBZovH3-8" value="" style="whiteSpace=wrap;html=1;shadow=1;fillColor=none;" parent="1" vertex="1"><mxGeometry x="180" y="220" width="450" height="250" as="geometry"/></mxCell><mxCell id="5FsGlYniqCGd8QBZovH3-1" value="FeatureProbe&lt;br&gt;Server" style="whiteSpace=wrap;html=1;fillColor=#E8E8FF;shadow=1;" parent="1" vertex="1"><mxGeometry x="200" y="250" width="110" height="60" as="geometry"/></mxCell><mxCell id="5FsGlYniqCGd8QBZovH3-2" value="FeatureProbe &lt;br&gt;API" style="whiteSpace=wrap;html=1;fillColor=#E8E8FF;shadow=1;" parent="1" vertex="1"><mxGeometry x="345" y="250" width="110" height="60" as="geometry"/></mxCell><mxCell id="5FsGlYniqCGd8QBZovH3-3" value="FeatureProbe&amp;nbsp;&lt;br&gt;UI" style="whiteSpace=wrap;html=1;fillColor=#E8E8FF;shadow=1;" parent="1" vertex="1"><mxGeometry x="490" y="250" width="110" height="60" as="geometry"/></mxCell><mxCell id="5FsGlYniqCGd8QBZovH3-4" value="DB" style="shape=cylinder3;whiteSpace=wrap;html=1;boundedLbl=1;backgroundOutline=1;size=15;shadow=1;fillColor=#E8E8FF;" parent="1" vertex="1"><mxGeometry x="370" y="370" width="60" height="80" as="geometry"/></mxCell><mxCell id="5FsGlYniqCGd8QBZovH3-5" value="" style="fontColor=#0066CC;verticalAlign=top;verticalLabelPosition=bottom;labelPosition=center;align=center;html=1;outlineConnect=0;fillColor=#CCCCCC;strokeColor=#6881B3;gradientColor=none;gradientDirection=north;strokeWidth=2;shape=mxgraph.networks.terminal;shadow=1;" parent="1" vertex="1"><mxGeometry x="700" y="250" width="80" height="65" as="geometry"/></mxCell><mxCell id="5FsGlYniqCGd8QBZovH3-6" value="" style="shape=flexArrow;endArrow=classic;startArrow=classic;html=1;exitX=1;exitY=0.5;exitDx=0;exitDy=0;startWidth=10;startSize=4.542857142857142;width=5.238095238095238;endWidth=10;endSize=4.542857142857142;fillColor=#FFFFFF;" parent="1" source="5FsGlYniqCGd8QBZovH3-3" target="5FsGlYniqCGd8QBZovH3-5" edge="1"><mxGeometry width="100" height="100" relative="1" as="geometry"><mxPoint x="600" y="283" as="sourcePoint"/><mxPoint x="710" y="260" as="targetPoint"/></mxGeometry></mxCell><mxCell id="5FsGlYniqCGd8QBZovH3-7" value="" style="fontColor=#0066CC;verticalAlign=top;verticalLabelPosition=bottom;labelPosition=center;align=center;html=1;outlineConnect=0;fillColor=#CCCCCC;strokeColor=#6881B3;gradientColor=none;gradientDirection=north;strokeWidth=2;shape=mxgraph.networks.server;shadow=1;" parent="1" vertex="1"><mxGeometry x="20" y="230" width="90" height="100" as="geometry"/></mxCell><mxCell id="5FsGlYniqCGd8QBZovH3-9" value="" style="fontColor=#0066CC;verticalAlign=top;verticalLabelPosition=bottom;labelPosition=center;align=center;html=1;outlineConnect=0;fillColor=#CCCCCC;strokeColor=#6881B3;gradientColor=none;gradientDirection=north;strokeWidth=2;shape=mxgraph.networks.mobile;shadow=1;" parent="1" vertex="1"><mxGeometry x="40" y="370" width="50" height="100" as="geometry"/></mxCell><mxCell id="5FsGlYniqCGd8QBZovH3-11" value="" style="endArrow=classic;startArrow=classic;html=1;strokeColor=#3333FF;fillColor=#FFFFFF;" parent="1" source="5FsGlYniqCGd8QBZovH3-7" target="5FsGlYniqCGd8QBZovH3-1" edge="1"><mxGeometry width="50" height="50" relative="1" as="geometry"><mxPoint x="320" y="400" as="sourcePoint"/><mxPoint x="370" y="350" as="targetPoint"/></mxGeometry></mxCell><mxCell id="5FsGlYniqCGd8QBZovH3-12" value="" style="endArrow=classic;startArrow=classic;html=1;strokeColor=#3333FF;fillColor=#FFFFFF;exitX=1;exitY=0.5;exitDx=0;exitDy=0;exitPerimeter=0;entryX=0;entryY=0.75;entryDx=0;entryDy=0;" parent="1" source="5FsGlYniqCGd8QBZovH3-9" target="5FsGlYniqCGd8QBZovH3-1" edge="1"><mxGeometry width="50" height="50" relative="1" as="geometry"><mxPoint x="120" y="290" as="sourcePoint"/><mxPoint x="190" y="290" as="targetPoint"/></mxGeometry></mxCell><mxCell id="5FsGlYniqCGd8QBZovH3-13" value="" style="endArrow=classic;startArrow=classic;html=1;strokeColor=#000000;fillColor=#FFFFFF;exitX=0.5;exitY=0;exitDx=0;exitDy=0;exitPerimeter=0;entryX=0.5;entryY=1;entryDx=0;entryDy=0;" parent="1" source="5FsGlYniqCGd8QBZovH3-4" target="5FsGlYniqCGd8QBZovH3-2" edge="1"><mxGeometry width="50" height="50" relative="1" as="geometry"><mxPoint x="300" y="282.26" as="sourcePoint"/><mxPoint x="340" y="280" as="targetPoint"/></mxGeometry></mxCell><mxCell id="5FsGlYniqCGd8QBZovH3-15" value="" style="endArrow=classic;startArrow=classic;html=1;strokeColor=#000000;fillColor=#FFFFFF;exitX=0;exitY=0.5;exitDx=0;exitDy=0;entryX=1;entryY=0.5;entryDx=0;entryDy=0;" parent="1" source="5FsGlYniqCGd8QBZovH3-2" target="5FsGlYniqCGd8QBZovH3-1" edge="1"><mxGeometry width="50" height="50" relative="1" as="geometry"><mxPoint x="410" y="380" as="sourcePoint"/><mxPoint x="410" y="320" as="targetPoint"/></mxGeometry></mxCell><mxCell id="5FsGlYniqCGd8QBZovH3-16" value="" style="endArrow=classic;startArrow=classic;html=1;strokeColor=#000000;fillColor=#FFFFFF;entryX=1;entryY=0.5;entryDx=0;entryDy=0;" parent="1" source="5FsGlYniqCGd8QBZovH3-3" target="5FsGlYniqCGd8QBZovH3-2" edge="1"><mxGeometry width="50" height="50" relative="1" as="geometry"><mxPoint x="355" y="290" as="sourcePoint"/><mxPoint x="320" y="290" as="targetPoint"/></mxGeometry></mxCell><mxCell id="5FsGlYniqCGd8QBZovH3-17" value="SDK" style="text;html=1;strokeColor=none;fillColor=none;align=center;verticalAlign=middle;whiteSpace=wrap;shadow=1;" parent="1" vertex="1"><mxGeometry x="120" y="250" width="60" height="30" as="geometry"/></mxCell><mxCell id="5FsGlYniqCGd8QBZovH3-18" value="SDK" style="text;html=1;strokeColor=none;fillColor=none;align=center;verticalAlign=middle;whiteSpace=wrap;shadow=1;" parent="1" vertex="1"><mxGeometry x="120" y="360" width="60" height="30" as="geometry"/></mxCell><mxCell id="5FsGlYniqCGd8QBZovH3-19" value="Feature Probe" style="text;html=1;strokeColor=none;fillColor=none;align=center;verticalAlign=middle;whiteSpace=wrap;shadow=1;" parent="1" vertex="1"><mxGeometry x="210" y="420" width="80" height="30" as="geometry"/></mxCell></root></mxGraphModel></diagram></mxfile>